# xmcd
#
# Track frame offsets:
#	150
#	13929
#	32951
#	46772
#	63682
#	77285
#	96100
#	107728
#	123180
#	137558
#	149133
#	172950
#	194032
#	210054
#
# Disc length: 3046 seconds
#
# Revision: 1
# Processed by: cddbd v1.5.2PL0 Copyright (c) Steve Scherf et al.
# Submitted via: audiograbber 1.83.01
#
DISCID=c00be40e
DTITLE=The Chatelier Family - Count Your Blessings
DYEAR=1900
DGENRE=Christian
TTITLE0=All Things Bright And Beautiful
TTITLE1=What A Wonderful World
TTITLE2=Day By Day
TTITLE3=Count Your Blessings
TTITLE4=Light At The End Of The Darkness
TTITLE5=Crying In The Chapel
TTITLE6=Who Made This Great Big World
TTITLE7=Put Your Hand In The Hand - He's Got The Whole World In His Hands
TTITLE8=A Living Sermon
TTITLE9=Oh Be Careful
TTITLE10=What God Made Mothers For
TTITLE11=Everything Is Beautiful
TTITLE12=Living Sacrifice
TTITLE13=He Ain't Heavy He's My Brother
EXTD=
EXTT0=
EXTT1=
EXTT2=
EXTT3=
EXTT4=
EXTT5=
EXTT6=
EXTT7=
EXTT8=
EXTT9=
EXTT10=
EXTT11=
EXTT12=
EXTT13=
PLAYORDER=
